<?xml version="1.0" encoding="UTF-8" standalone="no"?>
<!-- Created with Inkscape (http://www.inkscape.org/) -->

<svg
   xmlns:dc="http://purl.org/dc/elements/1.1/"
   xmlns:cc="http://creativecommons.org/ns#"
   xmlns:rdf="http://www.w3.org/1999/02/22-rdf-syntax-ns#"
   xmlns:svg="http://www.w3.org/2000/svg"
   xmlns="http://www.w3.org/2000/svg"
   xmlns:sodipodi="http://sodipodi.sourceforge.net/DTD/sodipodi-0.dtd"
   xmlns:inkscape="http://www.inkscape.org/namespaces/inkscape"
   width="211.10358mm"
   height="52.300407mm"
   viewBox="0 0 211.10358 52.300407"
   version="1.1"
   id="svg8"
   inkscape:version="0.92.3 (2405546, 2018-03-11)"
   sodipodi:docname="long-logo-amana-navy.svg"
   inkscape:export-filename="/home/scriptx/Pictures/Project Inkscape/Amana/logo-amana-new.png"
   inkscape:export-xdpi="300"
   inkscape:export-ydpi="300">
  <defs
     id="defs2" />
  <sodipodi:namedview
     id="base"
     pagecolor="#ffffff"
     bordercolor="#666666"
     borderopacity="1.0"
     inkscape:pageopacity="0.0"
     inkscape:pageshadow="2"
     inkscape:zoom="0.70710681"
     inkscape:cx="468.39261"
     inkscape:cy="60.5729"
     inkscape:document-units="mm"
     inkscape:current-layer="text4827"
     showgrid="false"
     inkscape:measure-start="0,0"
     inkscape:measure-end="0,0"
     inkscape:window-width="1366"
     inkscape:window-height="725"
     inkscape:window-x="0"
     inkscape:window-y="20"
     inkscape:window-maximized="1" />
  <metadata
     id="metadata5">
    <rdf:RDF>
      <cc:Work
         rdf:about="">
        <dc:format>image/svg+xml</dc:format>
        <dc:type
           rdf:resource="http://purl.org/dc/dcmitype/StillImage" />
        <dc:title />
      </cc:Work>
    </rdf:RDF>
  </metadata>
  <g
     inkscape:label="Layer 1"
     inkscape:groupmode="layer"
     id="layer1"
     transform="translate(-437.43357,-83.054706)">
    <text
       xml:space="preserve"
       style="font-style:normal;font-variant:normal;font-weight:normal;font-stretch:normal;font-size:22.57777786px;line-height:1.25;font-family:Poppins;-inkscape-font-specification:Poppins;letter-spacing:0px;word-spacing:0px;fill:#000000;fill-opacity:1;stroke:none;stroke-width:0.26458332"
       x="46.504898"
       y="101.3587"
       id="text4842"><tspan
         sodipodi:role="line"
         id="tspan4840"
         x="46.504898"
         y="121.11426"
         style="font-style:normal;font-variant:normal;font-weight:normal;font-stretch:normal;font-size:22.57777786px;font-family:Poppins;-inkscape-font-specification:Poppins;stroke-width:0.26458332" /></text>
    <text
       xml:space="preserve"
       style="font-style:normal;font-variant:normal;font-weight:normal;font-stretch:normal;font-size:5.64444447px;line-height:1.25;font-family:Poppins;-inkscape-font-specification:Poppins;letter-spacing:0px;word-spacing:0px;fill:#000000;fill-opacity:1;stroke:none;stroke-width:0.26458332"
       x="43.832203"
       y="89.064308"
       id="text4846"><tspan
         sodipodi:role="line"
         id="tspan4844"
         x="43.832203"
         y="94.003197"
         style="font-style:normal;font-variant:normal;font-weight:normal;font-stretch:normal;font-family:Poppins;-inkscape-font-specification:Poppins;stroke-width:0.26458332" /></text>
    <text
       xml:space="preserve"
       style="font-style:normal;font-variant:normal;font-weight:normal;font-stretch:normal;font-size:22.57777786px;line-height:1.25;font-family:'Noto Sans Adlam Unjoined';-inkscape-font-specification:'Noto Sans Adlam Unjoined';letter-spacing:0px;word-spacing:0px;fill:#000000;fill-opacity:1;stroke:none;stroke-width:0.26458332"
       x="171.58704"
       y="80.511681"
       id="text4993"><tspan
         sodipodi:role="line"
         id="tspan4991"
         x="171.58704"
         y="101.93322"
         style="font-style:normal;font-variant:normal;font-weight:normal;font-stretch:normal;font-family:'Noto Sans Adlam Unjoined';-inkscape-font-specification:'Noto Sans Adlam Unjoined';stroke-width:0.26458332" /></text>
    <flowRoot
       transform="matrix(0.26458333,0,0,0.26458333,-8.018085,9.412616)"
       style="font-style:normal;font-variant:normal;font-weight:normal;font-stretch:normal;font-size:85.33333588px;line-height:1.25;font-family:'SF Laundromatic';-inkscape-font-specification:'SF Laundromatic';letter-spacing:0px;word-spacing:0px;fill:#000000;fill-opacity:1;stroke:none"
       id="flowRoot4784"
       xml:space="preserve"><flowRegion
         id="flowRegion4786"><rect
           y="13.167715"
           x="-34"
           height="512"
           width="438"
           id="rect4788" /></flowRegion><flowPara
         id="flowPara4790" /></flowRoot>    <text
       xml:space="preserve"
       style="font-style:normal;font-variant:normal;font-weight:normal;font-stretch:normal;font-size:49.15095139px;line-height:1.25;font-family:'Geoma Regular Demo';-inkscape-font-specification:'Geoma Regular Demo';letter-spacing:0px;word-spacing:0px;fill:#ffffff;fill-opacity:1;stroke:none;stroke-width:0.25599453"
       x="285.77219"
       y="177.34935"
       id="text4954"
       transform="scale(1.0335507,0.96753841)"><tspan
         sodipodi:role="line"
         id="tspan4952"
         x="285.77219"
         y="222.08173"
         style="font-style:normal;font-variant:normal;font-weight:normal;font-stretch:normal;font-size:49.15095139px;font-family:'Geoma Regular Demo';-inkscape-font-specification:'Geoma Regular Demo';fill:#ffffff;fill-opacity:1;stroke-width:0.25599453" /></text>
    <path
       inkscape:connector-curvature="0"
       id="path4783"
       style="font-style:normal;font-variant:normal;font-weight:bold;font-stretch:normal;font-size:medium;line-height:0px;font-family:'Geoma Regular Demo';-inkscape-font-specification:'Geoma Regular Demo Bold';letter-spacing:-1.85208333px;word-spacing:0px;fill:#333b5b;fill-opacity:1;stroke:none;stroke-width:0.26458332"
       d="m 450.62966,105.78601 q -5.45703,0 -9.32657,3.84473 -3.86953,3.86953 -3.86953,9.32656 0,5.45703 3.86953,9.32657 3.86954,3.86953 9.32657,3.86953 3.29902,0 5.50664,-1.21543 0.91777,-0.4961 1.21543,-1.48828 0.29765,-0.99219 -0.19844,-1.90997 -0.47129,-0.91777 -1.46348,-1.21542 -0.64492,-0.19844 -1.93476,0.19843 -1.61231,0.57051 -3.12539,0.59532 -3.39825,0 -5.7795,-2.38125 -2.40605,-2.40606 -2.40605,-5.7795 0,-3.37343 2.40605,-5.75468 2.38125,-2.40606 5.7795,-2.40606 3.37343,0 5.75468,2.40606 2.40606,2.38125 2.40606,5.75468 v 10.66602 q 0,1.0418 0.71933,1.78594 0.74415,0.74414 1.78594,0.74414 1.0418,0 1.76114,-0.74414 0.74414,-0.74414 0.74414,-1.78594 V 118.9573 q 0,-5.45703 -3.86954,-9.32656 -3.86953,-3.84473 -9.30175,-3.84473 z" />
    <path
       inkscape:connector-curvature="0"
       id="path4785"
       style="font-style:normal;font-variant:normal;font-weight:bold;font-stretch:normal;font-size:medium;line-height:0px;font-family:'Geoma Regular Demo';-inkscape-font-specification:'Geoma Regular Demo Bold';letter-spacing:-1.85208333px;word-spacing:0px;fill:#333b5b;fill-opacity:1;stroke:none;stroke-width:0.26458332"
       d="m 496.10492,105.78601 q -5.45704,0 -8.90489,4.93614 -3.44785,-4.93614 -8.90488,-4.93614 -3.52227,0 -6.39961,2.28204 -0.0992,-0.96739 -0.81855,-1.63711 -0.69453,-0.64493 -1.68672,-0.64493 -1.0418,0 -1.76113,0.71934 -0.74415,0.74414 -0.74415,1.78594 v 21.33203 q 0,1.0418 0.74415,1.78594 0.71933,0.74414 1.76113,0.74414 1.04179,0 1.78594,-0.74414 0.71933,-0.74414 0.71933,-1.78594 V 118.9573 q 0,-3.37343 1.88516,-5.77949 1.88515,-2.38125 4.51445,-2.38125 2.6541,0 4.51445,2.40606 1.88516,2.38125 1.88516,5.75468 v 10.66602 q 0,1.0418 0.71934,1.78594 0.74414,0.74414 1.78593,0.74414 1.0418,0 1.78594,-0.74414 0.71934,-0.74414 0.71934,-1.78594 V 118.9573 q 0,-3.37343 1.88515,-5.75468 1.86035,-2.40606 4.51446,-2.40606 2.62929,0 4.51445,2.40606 1.88516,2.38125 1.88516,5.75468 v 10.66602 q 0,1.0418 0.71933,1.78594 0.74414,0.74414 1.78594,0.74414 1.0418,0 1.76113,-0.74414 0.74414,-0.74414 0.74414,-1.78594 V 118.9573 q 0,-5.45703 -3.34863,-9.32656 -3.34863,-3.84473 -8.06152,-3.84473 z" />
    <path
       inkscape:connector-curvature="0"
       id="path4787"
       style="font-style:normal;font-variant:normal;font-weight:bold;font-stretch:normal;font-size:medium;line-height:0px;font-family:'Geoma Regular Demo';-inkscape-font-specification:'Geoma Regular Demo Bold';letter-spacing:-1.85208333px;word-spacing:0px;fill:#333b5b;fill-opacity:1;stroke:none;stroke-width:0.26458332"
       d="m 522.6294,105.78601 q -5.45703,0 -9.32656,3.84473 -3.86954,3.86953 -3.86954,9.32656 0,5.45703 3.86954,9.32657 3.86953,3.86953 9.32656,3.86953 3.29902,0 5.50664,-1.21543 0.91777,-0.4961 1.21543,-1.48828 0.29765,-0.99219 -0.19844,-1.90997 -0.47129,-0.91777 -1.46348,-1.21542 -0.64492,-0.19844 -1.93476,0.19843 -1.61231,0.57051 -3.12539,0.59532 -3.39824,0 -5.77949,-2.38125 -2.40606,-2.40606 -2.40606,-5.7795 0,-3.37343 2.40606,-5.75468 2.38125,-2.40606 5.77949,-2.40606 3.37343,0 5.75468,2.40606 2.40606,2.38125 2.40606,5.75468 v 10.66602 q 0,1.0418 0.71934,1.78594 0.74414,0.74414 1.78593,0.74414 1.0418,0 1.76114,-0.74414 0.74414,-0.74414 0.74414,-1.78594 V 118.9573 q 0,-5.45703 -3.86953,-9.32656 -3.86954,-3.84473 -9.30176,-3.84473 z" />
    <path
       inkscape:connector-curvature="0"
       id="path4789"
       style="font-style:normal;font-variant:normal;font-weight:bold;font-stretch:normal;font-size:medium;line-height:0px;font-family:'Geoma Regular Demo';-inkscape-font-specification:'Geoma Regular Demo Bold';letter-spacing:-1.85208333px;word-spacing:0px;fill:#333b5b;fill-opacity:1;stroke:none;stroke-width:0.26458332"
       d="m 551.18786,105.78601 q -4.04316,0 -7.29258,2.55489 v -0.0496 q 0,-1.0418 -0.71933,-1.78594 -0.74414,-0.71934 -1.78594,-0.71934 -1.0418,0 -1.76113,0.71934 -0.74414,0.74414 -0.74414,1.78594 v 21.33203 q 0,1.0418 0.74414,1.78594 0.71933,0.74414 1.76113,0.74414 1.0418,0 1.78594,-0.74414 0.71933,-0.74414 0.71933,-1.78594 V 118.9573 q 0,-3.37343 2.15801,-5.77949 2.1332,-2.38125 5.13457,-2.38125 3.00137,0 5.13457,2.40606 2.1332,2.38125 2.1332,5.75468 v 10.66602 q 0,1.0418 0.74414,1.78594 0.74414,0.74414 1.78594,0.74414 1.0418,0 1.76113,-0.74414 0.74414,-0.74414 0.74414,-1.78594 V 118.9573 q 0,-5.45703 -3.62148,-9.32656 -3.59668,-3.84473 -8.68164,-3.84473 z" />
    <path
       style="opacity:0.98000004;fill:#2194f0;fill-opacity:1;fill-rule:evenodd;stroke:#2192ed;stroke-width:5.42859507;stroke-linecap:round;stroke-linejoin:round;stroke-miterlimit:4;stroke-dasharray:none;stroke-dashoffset:0;stroke-opacity:1;paint-order:stroke fill markers"
       d="m 584.34635,85.768895 -7.15071,7.08387 -7.15151,7.08387 v 32.704175 h 28.90517 v -32.699725 -4.2e-4 -0.004 h -0.004 l -7.2973,-7.08185 z m -0.12276,3.28723 c 0.1866,0.002 0.38241,0.008 0.59073,0.0186 2.5823,0.12788 4.70903,1.40757 6.01892,3.62239 1.1854,2.00431 1.1173,4.98477 -0.16129,7.04142 -0.91455,1.471075 -2.72656,2.758465 -4.47238,3.177265 -1.01823,0.24426 -2.71507,0.25067 -3.67586,0.0137 -1.15097,-0.28382 -2.39566,-0.9947 -3.35607,-1.91671 -1.42458,-1.367635 -2.13716,-3.010515 -2.13408,-4.920945 0.004,-2.66829 1.4373,-4.98944 3.83476,-6.21062 1.21463,-0.61869 2.04918,-0.83587 3.35527,-0.82514 z"
       id="path4950"
       inkscape:connector-curvature="0" />
    <path
       inkscape:connector-curvature="0"
       id="path4796"
       style="font-style:normal;font-variant:normal;font-weight:bold;font-stretch:normal;font-size:medium;line-height:1.25;font-family:'Geoma Regular Demo';-inkscape-font-specification:'Geoma Regular Demo Bold';letter-spacing:-1.85208333px;word-spacing:0px;fill:#333b5b;fill-opacity:1;stroke:none;stroke-width:0.26458332"
       d="m 617.10134,105.78601 q -1.04179,0 -1.76113,0.71934 -0.74414,0.74414 -0.74414,1.78594 v 21.33203 q 0,1.0418 0.74414,1.78594 0.71934,0.74414 1.76113,0.74414 1.0418,0 1.78594,-0.74414 0.71934,-0.74414 0.71934,-1.78594 v -21.33203 q 0,-1.0418 -0.71934,-1.78594 -0.74414,-0.71934 -1.78594,-0.71934 z m -2.75332,-7.466207 q 0,1.041797 0.74414,1.761137 0.74414,0.74414 1.78594,0.74414 h 0.37207 q 1.0418,0 1.78594,-0.74414 0.74414,-0.71934 0.74414,-1.761137 0,-1.041796 -0.74414,-1.785937 -0.74414,-0.719336 -1.78594,-0.719336 h -0.37207 q -1.0418,0 -1.78594,0.719336 -0.74414,0.744141 -0.74414,1.785937 z" />
    <path
       inkscape:connector-curvature="0"
       id="path4798"
       style="font-style:normal;font-variant:normal;font-weight:bold;font-stretch:normal;font-size:medium;line-height:1.25;font-family:'Geoma Regular Demo';-inkscape-font-specification:'Geoma Regular Demo Bold';letter-spacing:-1.85208333px;word-spacing:0px;fill:#333b5b;fill-opacity:1;stroke:none;stroke-width:0.26458332"
       d="m 646.03188,95.81453 q -1.0418,0 -1.78594,0.744141 -0.71934,0.719336 -0.71934,1.761132 V 118.9573 q 0,3.37344 -2.40605,5.7795 -2.38125,2.38125 -5.75469,2.38125 -3.39824,0 -5.77949,-2.38125 -2.40606,-2.40606 -2.40606,-5.7795 0,-3.37343 2.40606,-5.75468 2.38125,-2.40606 5.77949,-2.40606 1.78594,0 3.42305,0.74414 0.94258,0.44649 1.90996,0.0992 0.99219,-0.37207 1.41387,-1.31465 0.44648,-0.94258 0.0992,-1.90996 -0.37207,-0.96738 -1.31464,-1.41387 -2.6293,-1.21543 -5.53145,-1.21543 -5.45703,0 -9.32656,3.84473 -3.86953,3.86953 -3.86953,9.32656 0,5.45703 3.86953,9.32657 3.86953,3.86953 9.32656,3.86953 5.43223,0 9.30176,-3.86953 3.86953,-3.86954 3.86953,-9.32657 V 98.319803 q 0,-1.041796 -0.74414,-1.761132 -0.71934,-0.744141 -1.76113,-0.744141 z" />
    <g
       aria-label="."
       style="font-style:normal;font-variant:normal;font-weight:normal;font-stretch:normal;font-size:50.79999924px;line-height:1.25;font-family:Comfortaa;-inkscape-font-specification:Comfortaa;letter-spacing:-18.13189507px;word-spacing:0px;fill:#333b5b;fill-opacity:1;stroke:none;stroke-width:0.26458332"
       id="text4820">
      <path
         d="m 608.39119,132.15339 q -1.2192,0 -2.0828,-0.8636 -0.8636,-0.8636 -0.8636,-2.0828 0,-1.27 0.8636,-2.1336 0.9144,-0.8636 2.0828,-0.8636 1.2192,0 2.0828,0.9144 0.8636,0.8636 0.8636,2.0828 0,1.2192 -0.8636,2.0828 -0.8636,0.8636 -2.0828,0.8636 z"
         style="fill:#333b5b;fill-opacity:1;stroke-width:0.26458332"
         id="path4803"
         inkscape:connector-curvature="0" />
    </g>
    <g
       aria-label="a"
       style="font-style:normal;font-variant:normal;font-weight:normal;font-stretch:normal;font-size:50.79999924px;line-height:1.25;font-family:Comfortaa;-inkscape-font-specification:Comfortaa;letter-spacing:-18.13189507px;word-spacing:0px;fill:#ffffff;fill-opacity:1;stroke:none;stroke-width:0.26458332"
       id="text4827">
      <path
         d="m 584.50908,105.78601 q -5.45703,0 -9.32656,3.84473 -3.86953,3.86953 -3.86953,9.32656 0,5.45703 3.86953,9.32657 3.86953,3.86953 9.32656,3.86953 3.29903,0 5.50664,-1.21543 0.91778,-0.4961 1.21543,-1.48828 0.29766,-0.99219 -0.19844,-1.90997 -0.47128,-0.91777 -1.46347,-1.21542 -0.64492,-0.19844 -1.93477,0.19843 -1.6123,0.57051 -3.12539,0.59532 -3.39824,0 -5.77949,-2.38125 -2.40605,-2.40606 -2.40605,-5.7795 0,-3.37343 2.40605,-5.75468 2.38125,-2.40606 5.77949,-2.40606 3.37344,0 5.75469,2.40606 2.40605,2.38125 2.40605,5.75468 v 10.66602 q 0,1.0418 0.71934,1.78594 0.74414,0.74414 1.78594,0.74414 1.04179,0 1.76113,-0.74414 0.74414,-0.74414 0.74414,-1.78594 V 118.9573 q 0,-5.45703 -3.86953,-9.32656 -3.86953,-3.84473 -9.30176,-3.84473 z"
         style="font-style:normal;font-variant:normal;font-weight:normal;font-stretch:normal;font-family:'Geoma Regular Demo';-inkscape-font-specification:'Geoma Regular Demo';fill:#ffffff;fill-opacity:1;stroke-width:0.26458332"
         id="path4806"
         inkscape:connector-curvature="0" />
    </g>
  </g>
</svg>
